<svg width="22" height="22" viewBox="0 0 22 22" fill="none" xmlns="http://www.w3.org/2000/svg">
<path d="M11 1.8335C5.93084 1.8335 1.83334 5.931 1.83334 11.0002C1.83334 16.0693 5.93084 20.1668 11 20.1668C16.0692 20.1668 20.1667 16.0693 20.1667 11.0002C20.1667 5.931 16.0692 1.8335 11 1.8335ZM14.9417 14.9418C14.5842 15.2993 14.0067 15.2993 13.6492 14.9418L11 12.2927L8.35084 14.9418C7.99334 15.2993 7.41584 15.2993 7.05834 14.9418C6.70084 14.5843 6.70084 14.0068 7.05834 13.6493L9.70751 11.0002L7.05834 8.351C6.70084 7.9935 6.70084 7.416 7.05834 7.0585C7.41584 6.701 7.99334 6.701 8.35084 7.0585L11 9.70766L13.6492 7.0585C14.0067 6.701 14.5842 6.701 14.9417 7.0585C15.2992 7.416 15.2992 7.9935 14.9417 8.351L12.2925 11.0002L14.9417 13.6493C15.29 13.9977 15.29 14.5843 14.9417 14.9418Z" fill="#F04438"/>
</svg>
