<svg width="22" height="22" viewBox="0 0 22 22" fill="none" xmlns="http://www.w3.org/2000/svg">
<path d="M4.58333 6.41667H17.4167C18.425 6.41667 19.25 7.24167 19.25 8.25V13.75C19.25 14.7583 18.425 15.5833 17.4167 15.5833H4.58333C3.575 15.5833 2.75 14.7583 2.75 13.75V8.25C2.75 7.24167 3.575 6.41667 4.58333 6.41667ZM3.66667 2.75H18.3333C18.8375 2.75 19.25 3.1625 19.25 3.66667C19.25 4.17083 18.8375 4.58333 18.3333 4.58333H3.66667C3.1625 4.58333 2.75 4.17083 2.75 3.66667C2.75 3.1625 3.1625 2.75 3.66667 2.75ZM3.66667 17.4167H18.3333C18.8375 17.4167 19.25 17.8292 19.25 18.3333C19.25 18.8375 18.8375 19.25 18.3333 19.25H3.66667C3.1625 19.25 2.75 18.8375 2.75 18.3333C2.75 17.8292 3.1625 17.4167 3.66667 17.4167Z" fill="#2E90FA"/>
</svg>
