<svg width="22" height="22" viewBox="0 0 22 22" fill="none" xmlns="http://www.w3.org/2000/svg">
<path d="M9.76251 2.69488L6.35251 8.26822C5.97667 8.87322 6.41667 9.66155 7.13167 9.66155H13.9425C14.6575 9.66155 15.0975 8.87322 14.7217 8.26822L11.3208 2.69488C10.9633 2.10822 10.12 2.10822 9.76251 2.69488Z" fill="#9E77ED"/>
<path d="M15.5833 19.7449C17.8615 19.7449 19.7083 17.8981 19.7083 15.6199C19.7083 13.3417 17.8615 11.4949 15.5833 11.4949C13.3052 11.4949 11.4583 13.3417 11.4583 15.6199C11.4583 17.8981 13.3052 19.7449 15.5833 19.7449Z" fill="#9E77ED"/>
<path d="M3.20834 19.2866H8.70834C9.21251 19.2866 9.62501 18.8741 9.62501 18.3699V12.8699C9.62501 12.3657 9.21251 11.9532 8.70834 11.9532H3.20834C2.70417 11.9532 2.29167 12.3657 2.29167 12.8699V18.3699C2.29167 18.8741 2.70417 19.2866 3.20834 19.2866Z" fill="#9E77ED"/>
</svg>
