<svg width="22" height="22" viewBox="0 0 22 22" fill="none" xmlns="http://www.w3.org/2000/svg">
<path d="M5.5 16.2412H16.5C17.0042 16.2412 17.4167 16.6537 17.4167 17.1579C17.4167 17.662 17.0042 18.0745 16.5 18.0745H5.5C4.99584 18.0745 4.58334 17.662 4.58334 17.1579C4.58334 16.6537 4.99584 16.2412 5.5 16.2412ZM10.0925 12.4829C9.3775 13.1887 8.2225 13.1887 7.5075 12.4737L5.5 10.4662C4.99584 9.96203 5.005 9.1462 5.5275 8.66036C6.0225 8.1837 6.81084 8.20203 7.2875 8.6787L8.8 10.1912L14.6942 4.29703C15.1892 3.80203 15.9867 3.80203 16.4817 4.29703L16.5183 4.3337C17.0133 4.8287 17.0133 5.63536 16.5092 6.13036L10.0925 12.4829Z" fill="#A3B2FF"/>
</svg>
